<svg xmlns="http://www.w3.org/2000/svg" viewBox="0 0 185 46" width="185" height="46">
  <defs>
    <filter id="fg"><feGaussianBlur stdDeviation="3" result="b"/><feMerge><feMergeNode in="b"/><feMergeNode in="SourceGraphic"/></feMerge></filter>
  </defs>
  <rect width="182" height="43" x="1.5" y="1.5" rx="7" fill="transparent" stroke="#FF6B35" stroke-width="2" filter="url(#fg)">
    <animate attributeName="stroke" values="#FF6B35;#FFD700;#FF2D2D;#FF6B35" dur="3s" repeatCount="indefinite"/>
    <animate attributeName="stroke-width" values="2;2.5;2" dur="3s" repeatCount="indefinite"/>
  </rect>
  <!-- GitHub octocat simplified path -->
  <path d="M21,12 C16,12 12,16 12,21 C12,25 14.6,28.5 18,29.8 C18.5,29.9 18.6,29.6 18.6,29.3 C18.6,29 18.6,28.3 18.6,27.5 C16,28.1 15.5,26.3 15.5,26.3 C15,25.3 14.4,25 14.4,25 C13.5,24.4 14.5,24.4 14.5,24.4 C15.5,24.5 16.1,25.4 16.1,25.4 C17,27 18.4,26.5 19,26.2 C19.1,25.6 19.3,25.1 19.6,24.8 C17.5,24.6 15.3,23.8 15.3,20 C15.3,19 15.6,18.1 16.2,17.4 C16.1,17.2 15.8,16.2 16.3,14.9 C16.3,14.9 17,14.7 18.7,15.8 C19.4,15.6 20.2,15.5 21,15.5 C21.8,15.5 22.6,15.6 23.3,15.8 C25,14.7 25.7,14.9 25.7,14.9 C26.2,16.2 25.9,17.2 25.8,17.4 C26.4,18.1 26.7,19 26.7,20 C26.7,23.8 24.5,24.6 22.4,24.8 C22.8,25.1 23.1,25.7 23.1,26.6 C23.1,27.8 23.1,28.8 23.1,29.3 C23.1,29.6 23.3,29.9 23.8,29.8 C27.2,28.5 29.8,25 29.8,21 C29.8,16 25.8,12 21,12 Z" fill="#FF6B35"/>
  <!-- Label -->
  <text x="40" y="28" font-family="'Fira Code',monospace" font-size="13" font-weight="600" fill="#FF6B35">thrinadh2164</text>
</svg>
